<svg xmlns="http://www.w3.org/2000/svg" width="675" height="938" viewBox="0 0 675 938" role="img" font-family="-apple-system, BlinkMacSystemFont, &quot;Segoe UI&quot;, &quot;Noto Sans&quot;, Helvetica, Arial, sans-serif"><g class="legend"><line x1="16" y1="20" x2="38" y2="20" fill="none" stroke="#3b5caf" stroke-width="7" stroke-linecap="round" stroke-linejoin="round"/><text x="48" y="25" font-size="13" fill="#9198a1">Giacomo</text><line x1="132.17" y1="20" x2="154.17" y2="20" fill="none" stroke="#d6457e" stroke-width="7" stroke-linecap="round" stroke-linejoin="round"/><text x="164.17" y="25" font-size="13" fill="#9198a1">B.S.</text><line x1="218.71" y1="20" x2="240.71" y2="20" fill="none" stroke="#00a650" stroke-width="7" stroke-linecap="round" stroke-linejoin="round"/><text x="250.71" y="25" font-size="13" fill="#9198a1">M.S.</text><line x1="307.58" y1="20" x2="329.58" y2="20" fill="none" stroke="#e32017" stroke-width="7" stroke-linecap="round" stroke-linejoin="round"/><text x="339.58" y="25" font-size="13" fill="#9198a1">Alpenite</text><line x1="418.3" y1="20" x2="440.3" y2="20" fill="none" stroke="#8246a0" stroke-width="7" stroke-linecap="round" stroke-linejoin="round"/><text x="450.3" y="25" font-size="13" fill="#9198a1">PhD</text><line x1="505.61" y1="20" x2="527.61" y2="20" fill="none" stroke="#ff9900" stroke-width="7" stroke-linecap="round" stroke-linejoin="round"/><text x="537.61" y="25" font-size="13" fill="#9198a1">AWS</text></g><g class="tails"><line x1="40" y1="104" x2="40" y2="64" fill="none" stroke="#3b5caf" stroke-width="7" stroke-linecap="round" stroke-linejoin="round" stroke-dasharray="0 12"/><line x1="72" y1="104" x2="72" y2="64" fill="none" stroke="#8246a0" stroke-width="7" stroke-linecap="round" stroke-linejoin="round" stroke-dasharray="0 12"/></g><g class="tracks"><path d="M72,266 L96.93,290.93 Q104,298 104,308 L104,332 Q104,342 96.93,349.07 L72,374" fill="none" stroke="#ff9900" stroke-width="7" stroke-linecap="round" stroke-linejoin="round"/><path d="M72,126 L96.93,150.93 Q104,158 104,168 L104,192 Q104,202 96.93,209.07 L72,234" fill="none" stroke="#ff9900" stroke-width="7" stroke-linecap="round" stroke-linejoin="round"/><path d="M40,792 L64.93,816.93 Q72,824 72,834 L72,858 Q72,868 64.93,875.07 L40,900" fill="none" stroke="#d6457e" stroke-width="7" stroke-linecap="round" stroke-linejoin="round"/><path d="M40,482 L96.93,538.93 Q104,546 104,556 L104,686 Q104,696 96.93,703.07 L40,760" fill="none" stroke="#00a650" stroke-width="7" stroke-linecap="round" stroke-linejoin="round"/><path d="M40,514 L64.93,538.93 Q72,546 72,556 L72,633 Q72,643 64.93,650.07 L40,675" fill="none" stroke="#e32017" stroke-width="7" stroke-linecap="round" stroke-linejoin="round"/><path d="M72,104 L72,408 Q72,418 64.93,425.07 L40,450" fill="none" stroke="#8246a0" stroke-width="7" stroke-linecap="round" stroke-linejoin="round"/><path d="M40,104 L40,922" fill="none" stroke="#3b5caf" stroke-width="7" stroke-linecap="round" stroke-linejoin="round"/></g><g class="stations"><circle cx="104" cy="180" r="5.5" fill="#0d1117" stroke="#ff9900" stroke-width="3.2"/><circle cx="104" cy="320" r="5.5" fill="#0d1117" stroke="#ff9900" stroke-width="3.2"/><circle cx="72" cy="396" r="5.5" fill="#0d1117" stroke="#8246a0" stroke-width="3.2"/><circle cx="72" cy="568" r="5.5" fill="#0d1117" stroke="#e32017" stroke-width="3.2"/><circle cx="72" cy="621" r="5.5" fill="#0d1117" stroke="#e32017" stroke-width="3.2"/><circle cx="104" cy="674" r="5.5" fill="#0d1117" stroke="#00a650" stroke-width="3.2"/><circle cx="72" cy="846" r="5.5" fill="#0d1117" stroke="#d6457e" stroke-width="3.2"/></g><g class="labels"><text x="140" y="177" font-size="13" font-weight="700" fill="#ff9900">2026</text><text x="140" y="195" font-size="12" fill="#9198a1">AWS Austin</text><text x="254" y="177" font-size="14" font-weight="600" fill="#e6edf3">Applied Scientist Intern</text><rect x="254" y="185" width="41" height="18" rx="4" fill="#2f2414" stroke="#86550c"/><text x="261" y="198" font-family="ui-monospace, SFMono-Regular, &quot;SF Mono&quot;, Menlo, Consolas, &quot;Liberation Mono&quot;, monospace" font-size="11" fill="#e6edf3">Java</text><rect x="301" y="185" width="55" height="18" rx="4" fill="#2f2414" stroke="#86550c"/><text x="308" y="198" font-family="ui-monospace, SFMono-Regular, &quot;SF Mono&quot;, Menlo, Consolas, &quot;Liberation Mono&quot;, monospace" font-size="11" fill="#e6edf3">Python</text><rect x="362" y="185" width="41" height="18" rx="4" fill="#2f2414" stroke="#86550c"/><text x="369" y="198" font-family="ui-monospace, SFMono-Regular, &quot;SF Mono&quot;, Menlo, Consolas, &quot;Liberation Mono&quot;, monospace" font-size="11" fill="#e6edf3">Lean</text><text x="140" y="317" font-size="13" font-weight="700" fill="#ff9900">2025</text><text x="140" y="335" font-size="12" fill="#9198a1">AWS New York</text><text x="254" y="317" font-size="14" font-weight="600" fill="#e6edf3">Applied Scientist Intern</text><rect x="254" y="325" width="41" height="18" rx="4" fill="#2f2414" stroke="#86550c"/><text x="261" y="338" font-family="ui-monospace, SFMono-Regular, &quot;SF Mono&quot;, Menlo, Consolas, &quot;Liberation Mono&quot;, monospace" font-size="11" fill="#e6edf3">Java</text><rect x="301" y="325" width="55" height="18" rx="4" fill="#2f2414" stroke="#86550c"/><text x="308" y="338" font-family="ui-monospace, SFMono-Regular, &quot;SF Mono&quot;, Menlo, Consolas, &quot;Liberation Mono&quot;, monospace" font-size="11" fill="#e6edf3">Python</text><text x="140" y="393" font-size="13" font-weight="700" fill="#9f63bf">2023–2027</text><text x="140" y="411" font-size="12" fill="#9198a1">Ca&apos; Foscari</text><text x="254" y="393" font-size="14" font-weight="600" fill="#e6edf3">PhD in Computer Science</text><rect x="254" y="401" width="149" height="18" rx="4" fill="#1d182a" stroke="#482c5c"/><text x="261" y="414" font-family="ui-monospace, SFMono-Regular, &quot;SF Mono&quot;, Menlo, Consolas, &quot;Liberation Mono&quot;, monospace" font-size="11" fill="#e6edf3">software correctness</text><rect x="409" y="401" width="115" height="18" rx="4" fill="#1d182a" stroke="#482c5c"/><text x="416" y="414" font-family="ui-monospace, SFMono-Regular, &quot;SF Mono&quot;, Menlo, Consolas, &quot;Liberation Mono&quot;, monospace" font-size="11" fill="#e6edf3">static analysis</text><rect x="530" y="401" width="41" height="18" rx="4" fill="#1d182a" stroke="#482c5c"/><text x="537" y="414" font-family="ui-monospace, SFMono-Regular, &quot;SF Mono&quot;, Menlo, Consolas, &quot;Liberation Mono&quot;, monospace" font-size="11" fill="#e6edf3">Java</text><rect x="577" y="401" width="55" height="18" rx="4" fill="#1d182a" stroke="#482c5c"/><text x="584" y="414" font-family="ui-monospace, SFMono-Regular, &quot;SF Mono&quot;, Menlo, Consolas, &quot;Liberation Mono&quot;, monospace" font-size="11" fill="#e6edf3">Python</text><text x="140" y="565" font-size="13" font-weight="700" fill="#ed2e22">2021–2023</text><text x="140" y="583" font-size="12" fill="#9198a1">Alpenite</text><text x="254" y="565" font-size="14" font-weight="600" fill="#e6edf3">Technical Leader</text><rect x="254" y="573" width="55" height="18" rx="4" fill="#2b1317" stroke="#781817"/><text x="261" y="586" font-family="ui-monospace, SFMono-Regular, &quot;SF Mono&quot;, Menlo, Consolas, &quot;Liberation Mono&quot;, monospace" font-size="11" fill="#e6edf3">Golang</text><rect x="315" y="573" width="55" height="18" rx="4" fill="#2b1317" stroke="#781817"/><text x="322" y="586" font-family="ui-monospace, SFMono-Regular, &quot;SF Mono&quot;, Menlo, Consolas, &quot;Liberation Mono&quot;, monospace" font-size="11" fill="#e6edf3">Heroku</text><rect x="376" y="573" width="102" height="18" rx="4" fill="#2b1317" stroke="#781817"/><text x="383" y="586" font-family="ui-monospace, SFMono-Regular, &quot;SF Mono&quot;, Menlo, Consolas, &quot;Liberation Mono&quot;, monospace" font-size="11" fill="#e6edf3">microservices</text><text x="140" y="618" font-size="13" font-weight="700" fill="#ed2e22">2019–2021</text><text x="140" y="636" font-size="12" fill="#9198a1">Alpenite</text><text x="254" y="618" font-size="14" font-weight="600" fill="#e6edf3">Software Consultant &amp; Software Engineer</text><rect x="254" y="626" width="61" height="18" rx="4" fill="#2b1317" stroke="#781817"/><text x="261" y="639" font-family="ui-monospace, SFMono-Regular, &quot;SF Mono&quot;, Menlo, Consolas, &quot;Liberation Mono&quot;, monospace" font-size="11" fill="#e6edf3">Node.js</text><rect x="321" y="626" width="41" height="18" rx="4" fill="#2b1317" stroke="#781817"/><text x="328" y="639" font-family="ui-monospace, SFMono-Regular, &quot;SF Mono&quot;, Menlo, Consolas, &quot;Liberation Mono&quot;, monospace" font-size="11" fill="#e6edf3">SFCC</text><rect x="368" y="626" width="41" height="18" rx="4" fill="#2b1317" stroke="#781817"/><text x="375" y="639" font-family="ui-monospace, SFMono-Regular, &quot;SF Mono&quot;, Menlo, Consolas, &quot;Liberation Mono&quot;, monospace" font-size="11" fill="#e6edf3">APEX</text><rect x="415" y="626" width="55" height="18" rx="4" fill="#2b1317" stroke="#781817"/><text x="422" y="639" font-family="ui-monospace, SFMono-Regular, &quot;SF Mono&quot;, Menlo, Consolas, &quot;Liberation Mono&quot;, monospace" font-size="11" fill="#e6edf3">Python</text><rect x="476" y="626" width="82" height="18" rx="4" fill="#2b1317" stroke="#781817"/><text x="483" y="639" font-family="ui-monospace, SFMono-Regular, &quot;SF Mono&quot;, Menlo, Consolas, &quot;Liberation Mono&quot;, monospace" font-size="11" fill="#e6edf3">JavaScript</text><rect x="564" y="626" width="48" height="18" rx="4" fill="#2b1317" stroke="#781817"/><text x="571" y="639" font-family="ui-monospace, SFMono-Regular, &quot;SF Mono&quot;, Menlo, Consolas, &quot;Liberation Mono&quot;, monospace" font-size="11" fill="#e6edf3">CI/CD</text><rect x="618" y="626" width="41" height="18" rx="4" fill="#2b1317" stroke="#781817"/><text x="625" y="639" font-family="ui-monospace, SFMono-Regular, &quot;SF Mono&quot;, Menlo, Consolas, &quot;Liberation Mono&quot;, monospace" font-size="11" fill="#e6edf3">Jira</text><text x="140" y="671" font-size="13" font-weight="700" fill="#00a650">2018–2023</text><text x="140" y="689" font-size="12" fill="#9198a1">Ca&apos; Foscari</text><text x="254" y="671" font-size="14" font-weight="600" fill="#e6edf3">M.S. Computer Science</text><text x="254" y="689" font-size="12" fill="#9198a1">Software Dependability and Cybersecurity</text><text x="140" y="843" font-size="13" font-weight="700" fill="#d6457e">2015–2018</text><text x="140" y="861" font-size="12" fill="#9198a1">Ca&apos; Foscari</text><text x="254" y="843" font-size="14" font-weight="600" fill="#e6edf3">B.S. Information Science and Technology</text></g></svg>
